<mxfile host="app.diagrams.net" modified="2024-02-19T23:09:49.596Z" agent="Mozilla/5.0 (Macintosh; Intel Mac OS X 10_15_7) AppleWebKit/537.36 (KHTML, like Gecko) Chrome/121.0.0.0 Safari/537.36" etag="GaKEsnIZWYf8YrjHnJG6" version="23.1.5" type="device">
  <diagram name="Page-1" id="zmS0KXu6bWQVcU5g2mTy">
    <mxGraphModel dx="1015" dy="671" grid="1" gridSize="10" guides="1" tooltips="1" connect="1" arrows="1" fold="1" page="1" pageScale="1" pageWidth="850" pageHeight="1100" math="0" shadow="0">
      <root>
        <mxCell id="0" />
        <mxCell id="1" parent="0" />
        <mxCell id="mDlcbjdsZ-JErerBQaNy-1" value="LocalStack Cloud" style="points=[[0,0],[0.25,0],[0.5,0],[0.75,0],[1,0],[1,0.25],[1,0.5],[1,0.75],[1,1],[0.75,1],[0.5,1],[0.25,1],[0,1],[0,0.75],[0,0.5],[0,0.25]];outlineConnect=0;gradientColor=none;html=1;whiteSpace=wrap;fontSize=12;fontStyle=0;container=1;pointerEvents=0;collapsible=0;recursiveResize=0;shape=mxgraph.aws4.group;grIcon=mxgraph.aws4.group_aws_cloud;strokeColor=#232F3E;fillColor=none;verticalAlign=top;align=left;spacingLeft=30;fontColor=#232F3E;dashed=0;" vertex="1" parent="1">
          <mxGeometry width="850" height="220" as="geometry" />
        </mxCell>
        <mxCell id="mDlcbjdsZ-JErerBQaNy-9" style="edgeStyle=orthogonalEdgeStyle;rounded=1;orthogonalLoop=1;jettySize=auto;html=1;curved=0;strokeWidth=2;strokeColor=#4D4D4D;" edge="1" parent="mDlcbjdsZ-JErerBQaNy-1" source="mDlcbjdsZ-JErerBQaNy-4" target="mDlcbjdsZ-JErerBQaNy-7">
          <mxGeometry relative="1" as="geometry" />
        </mxCell>
        <mxCell id="mDlcbjdsZ-JErerBQaNy-10" style="edgeStyle=orthogonalEdgeStyle;rounded=1;orthogonalLoop=1;jettySize=auto;html=1;strokeColor=#4D4D4D;curved=0;strokeWidth=2;" edge="1" parent="mDlcbjdsZ-JErerBQaNy-1" source="mDlcbjdsZ-JErerBQaNy-4" target="mDlcbjdsZ-JErerBQaNy-6">
          <mxGeometry relative="1" as="geometry" />
        </mxCell>
        <mxCell id="mDlcbjdsZ-JErerBQaNy-4" value="S3 Util Lambda" style="sketch=0;points=[[0,0,0],[0.25,0,0],[0.5,0,0],[0.75,0,0],[1,0,0],[0,1,0],[0.25,1,0],[0.5,1,0],[0.75,1,0],[1,1,0],[0,0.25,0],[0,0.5,0],[0,0.75,0],[1,0.25,0],[1,0.5,0],[1,0.75,0]];outlineConnect=0;fontColor=#232F3E;fillColor=#ED7100;strokeColor=#ffffff;dashed=0;verticalLabelPosition=bottom;verticalAlign=top;align=center;html=1;fontSize=12;fontStyle=0;aspect=fixed;shape=mxgraph.aws4.resourceIcon;resIcon=mxgraph.aws4.lambda;" vertex="1" parent="mDlcbjdsZ-JErerBQaNy-1">
          <mxGeometry x="206" y="80" width="78" height="78" as="geometry" />
        </mxCell>
        <mxCell id="mDlcbjdsZ-JErerBQaNy-16" style="edgeStyle=orthogonalEdgeStyle;rounded=1;orthogonalLoop=1;jettySize=auto;html=1;curved=0;strokeColor=#4D4D4D;strokeWidth=2;" edge="1" parent="mDlcbjdsZ-JErerBQaNy-1" source="mDlcbjdsZ-JErerBQaNy-5" target="mDlcbjdsZ-JErerBQaNy-14">
          <mxGeometry relative="1" as="geometry" />
        </mxCell>
        <mxCell id="mDlcbjdsZ-JErerBQaNy-5" value="SQS to DDB Lambda" style="sketch=0;points=[[0,0,0],[0.25,0,0],[0.5,0,0],[0.75,0,0],[1,0,0],[0,1,0],[0.25,1,0],[0.5,1,0],[0.75,1,0],[1,1,0],[0,0.25,0],[0,0.5,0],[0,0.75,0],[1,0.25,0],[1,0.5,0],[1,0.75,0]];outlineConnect=0;fontColor=#232F3E;fillColor=#ED7100;strokeColor=#ffffff;dashed=0;verticalLabelPosition=bottom;verticalAlign=top;align=center;html=1;fontSize=12;fontStyle=0;aspect=fixed;shape=mxgraph.aws4.resourceIcon;resIcon=mxgraph.aws4.lambda;" vertex="1" parent="mDlcbjdsZ-JErerBQaNy-1">
          <mxGeometry x="566" y="80" width="78" height="78" as="geometry" />
        </mxCell>
        <mxCell id="mDlcbjdsZ-JErerBQaNy-6" value="Sample SQS Queue" style="sketch=0;outlineConnect=0;fontColor=#232F3E;gradientColor=none;fillColor=#E7157B;strokeColor=none;dashed=0;verticalLabelPosition=bottom;verticalAlign=top;align=center;html=1;fontSize=12;fontStyle=0;aspect=fixed;pointerEvents=1;shape=mxgraph.aws4.queue;" vertex="1" parent="mDlcbjdsZ-JErerBQaNy-1">
          <mxGeometry x="396" y="96" width="78" height="47" as="geometry" />
        </mxCell>
        <mxCell id="mDlcbjdsZ-JErerBQaNy-7" value="sample-bucket" style="sketch=0;points=[[0,0,0],[0.25,0,0],[0.5,0,0],[0.75,0,0],[1,0,0],[0,1,0],[0.25,1,0],[0.5,1,0],[0.75,1,0],[1,1,0],[0,0.25,0],[0,0.5,0],[0,0.75,0],[1,0.25,0],[1,0.5,0],[1,0.75,0]];outlineConnect=0;fontColor=#232F3E;fillColor=#7AA116;strokeColor=#ffffff;dashed=0;verticalLabelPosition=bottom;verticalAlign=top;align=center;html=1;fontSize=12;fontStyle=0;aspect=fixed;shape=mxgraph.aws4.resourceIcon;resIcon=mxgraph.aws4.s3;" vertex="1" parent="mDlcbjdsZ-JErerBQaNy-1">
          <mxGeometry x="40" y="80" width="78" height="78" as="geometry" />
        </mxCell>
        <mxCell id="mDlcbjdsZ-JErerBQaNy-3" value="&lt;font style=&quot;font-size: 14px;&quot;&gt;1&lt;/font&gt;" style="text;html=1;align=center;verticalAlign=middle;resizable=0;points=[];autosize=1;strokeColor=#6c8ebf;fillColor=#dae8fc;strokeWidth=4;rounded=1;glass=0;shadow=0;arcSize=50;" vertex="1" parent="mDlcbjdsZ-JErerBQaNy-1">
          <mxGeometry x="64" y="40" width="30" height="30" as="geometry" />
        </mxCell>
        <mxCell id="mDlcbjdsZ-JErerBQaNy-8" value="&lt;font style=&quot;font-size: 14px;&quot;&gt;2&lt;/font&gt;" style="text;html=1;align=center;verticalAlign=middle;resizable=0;points=[];autosize=1;strokeColor=#6c8ebf;fillColor=#dae8fc;strokeWidth=4;rounded=1;glass=0;shadow=0;arcSize=50;" vertex="1" parent="mDlcbjdsZ-JErerBQaNy-1">
          <mxGeometry x="230" y="40" width="30" height="30" as="geometry" />
        </mxCell>
        <mxCell id="mDlcbjdsZ-JErerBQaNy-11" style="edgeStyle=orthogonalEdgeStyle;rounded=1;orthogonalLoop=1;jettySize=auto;html=1;entryX=0;entryY=0.5;entryDx=0;entryDy=0;entryPerimeter=0;strokeColor=#4D4D4D;curved=0;strokeWidth=2;" edge="1" parent="mDlcbjdsZ-JErerBQaNy-1" source="mDlcbjdsZ-JErerBQaNy-6" target="mDlcbjdsZ-JErerBQaNy-5">
          <mxGeometry relative="1" as="geometry" />
        </mxCell>
        <mxCell id="mDlcbjdsZ-JErerBQaNy-12" value="&lt;font style=&quot;font-size: 14px;&quot;&gt;3&lt;/font&gt;" style="text;html=1;align=center;verticalAlign=middle;resizable=0;points=[];autosize=1;strokeColor=#6c8ebf;fillColor=#dae8fc;strokeWidth=4;rounded=1;glass=0;shadow=0;arcSize=50;" vertex="1" parent="mDlcbjdsZ-JErerBQaNy-1">
          <mxGeometry x="420" y="40" width="30" height="30" as="geometry" />
        </mxCell>
        <mxCell id="mDlcbjdsZ-JErerBQaNy-13" value="&lt;font style=&quot;font-size: 14px;&quot;&gt;4&lt;/font&gt;" style="text;html=1;align=center;verticalAlign=middle;resizable=0;points=[];autosize=1;strokeColor=#6c8ebf;fillColor=#dae8fc;strokeWidth=4;rounded=1;glass=0;shadow=0;arcSize=50;" vertex="1" parent="mDlcbjdsZ-JErerBQaNy-1">
          <mxGeometry x="590" y="40" width="30" height="30" as="geometry" />
        </mxCell>
        <mxCell id="mDlcbjdsZ-JErerBQaNy-14" value="DDB Table" style="sketch=0;points=[[0,0,0],[0.25,0,0],[0.5,0,0],[0.75,0,0],[1,0,0],[0,1,0],[0.25,1,0],[0.5,1,0],[0.75,1,0],[1,1,0],[0,0.25,0],[0,0.5,0],[0,0.75,0],[1,0.25,0],[1,0.5,0],[1,0.75,0]];outlineConnect=0;fontColor=#232F3E;fillColor=#C925D1;strokeColor=#ffffff;dashed=0;verticalLabelPosition=bottom;verticalAlign=top;align=center;html=1;fontSize=12;fontStyle=0;aspect=fixed;shape=mxgraph.aws4.resourceIcon;resIcon=mxgraph.aws4.dynamodb;" vertex="1" parent="mDlcbjdsZ-JErerBQaNy-1">
          <mxGeometry x="720" y="80" width="78" height="78" as="geometry" />
        </mxCell>
        <mxCell id="mDlcbjdsZ-JErerBQaNy-15" value="&lt;font style=&quot;font-size: 14px;&quot;&gt;5&lt;/font&gt;" style="text;html=1;align=center;verticalAlign=middle;resizable=0;points=[];autosize=1;strokeColor=#6c8ebf;fillColor=#dae8fc;strokeWidth=4;rounded=1;glass=0;shadow=0;arcSize=50;" vertex="1" parent="mDlcbjdsZ-JErerBQaNy-1">
          <mxGeometry x="744" y="40" width="30" height="30" as="geometry" />
        </mxCell>
        <mxCell id="mDlcbjdsZ-JErerBQaNy-2" value="&lt;ol style=&quot;font-size: 16px;&quot;&gt;&lt;li&gt;&lt;span style=&quot;background-color: initial;&quot;&gt;Objects are put into an S3 bucket&lt;/span&gt;&lt;/li&gt;&lt;li&gt;&lt;span style=&quot;background-color: initial;&quot;&gt;The S3 Util Lambda is invoked by any client. By the CLI in this example.&lt;/span&gt;&lt;/li&gt;&lt;li&gt;S3UtilLambda lists all the objects in the S3 bucket and puts all of their keys&lt;br&gt;into the SQS Queue (3)&lt;/li&gt;&lt;li&gt;Lambda receives all messages from SQS queue and upserts them into&amp;nbsp;&lt;br&gt;the DDB table&lt;/li&gt;&lt;li&gt;DDB table acts as a set of unique S3 object keys for the given bucket&lt;/li&gt;&lt;/ol&gt;" style="text;html=1;align=left;verticalAlign=middle;resizable=0;points=[];autosize=1;strokeColor=#666666;fillColor=#f5f5f5;fontColor=#333333;" vertex="1" parent="1">
          <mxGeometry x="130.00000000000006" y="220" width="590" height="180" as="geometry" />
        </mxCell>
      </root>
    </mxGraphModel>
  </diagram>
</mxfile>
